HIERARCHY
ROOT Hips
{
 OFFSET 0.000000 0.000000 0.000000
 CHANNELS 6 Xposition Yposition Zposition Yrotation Xrotation Zrotation
 JOINT Chest
 {
  OFFSET 0.000000 9.585900 0.002600
  CHANNELS 3 Yrotation Xrotation Zrotation
  JOINT Chest2
  {
   OFFSET 0.000000 9.601200 -0.005300
   CHANNELS 3 Yrotation Xrotation Zrotation
   JOINT Chest3
   {
    OFFSET 0.000000 9.561800 0.000000
    CHANNELS 3 Yrotation Xrotation Zrotation
    JOINT Chest4
    {
     OFFSET 0.000000 9.552100 0.000000
     CHANNELS 3 Yrotation Xrotation Zrotation
     JOINT Neck
     {
      OFFSET 0.000000 14.453000 0.000000
      CHANNELS 3 Yrotation Xrotation Zrotation
      JOINT Head
      {
       OFFSET 0.000000 8.936500 -0.011300
       CHANNELS 3 Yrotation Xrotation Zrotation
       End Site
       {
        OFFSET 0.000000 17.073600 -0.006000
       }
      }
     }
     JOINT RightCollar
     {
      OFFSET -2.921100 9.558500 0.000000
      CHANNELS 3 Yrotation Xrotation Zrotation
      JOINT RightShoulder
      {
       OFFSET -13.519700 0.000000 0.000000
       CHANNELS 3 Yrotation Xrotation Zrotation
       JOINT RightElbow
       {
        OFFSET 0.000000 -29.696600 0.000000
        CHANNELS 3 Yrotation Xrotation Zrotation
        JOINT RightWrist
        {
         OFFSET 0.000000 -24.004700 0.000000
         CHANNELS 3 Yrotation Xrotation Zrotation
         End Site
         {
          OFFSET 0.000000 -17.728500 0.000000
         }
        }
       }
      }
     }
     JOINT LeftCollar
     {
      OFFSET 2.921100 9.558500 0.000000
      CHANNELS 3 Yrotation Xrotation Zrotation
      JOINT LeftShoulder
      {
       OFFSET 13.519700 0.000000 0.000000
       CHANNELS 3 Yrotation Xrotation Zrotation
       JOINT LeftElbow
       {
        OFFSET 0.000000 -29.696600 0.000000
        CHANNELS 3 Yrotation Xrotation Zrotation
        JOINT LeftWrist
        {
         OFFSET 0.000000 -24.004700 0.000000
         CHANNELS 3 Yrotation Xrotation Zrotation
         End Site
         {
          OFFSET 0.000000 -17.728500 0.000000
         }
        }
       }
      }
     }
    }
   }
  }
 }
 JOINT RightHip
 {
  OFFSET -7.771700 -0.012900 -0.001300
  CHANNELS 3 Yrotation Xrotation Zrotation
  JOINT RightKnee
  {
   OFFSET 0.000000 -40.869800 0.001200
   CHANNELS 3 Yrotation Xrotation Zrotation
   JOINT RightAnkle
   {
    OFFSET 0.000000 -39.717900 0.002100
    CHANNELS 3 Yrotation Xrotation Zrotation
    JOINT RightToe
    {
     OFFSET 0.000000 -4.965400 11.033500
     CHANNELS 3 Yrotation Xrotation Zrotation
     End Site
     {
      OFFSET 0.000000 -1.423100 5.872300
     }
    }
   }
  }
 }
 JOINT LeftHip
 {
  OFFSET 7.771700 -0.012900 -0.001300
  CHANNELS 3 Yrotation Xrotation Zrotation
  JOINT LeftKnee
  {
   OFFSET 0.000000 -40.869800 0.001200
   CHANNELS 3 Yrotation Xrotation Zrotation
   JOINT LeftAnkle
   {
    OFFSET 0.000000 -39.717900 0.002100
    CHANNELS 3 Yrotation Xrotation Zrotation
    JOINT LeftToe
    {
     OFFSET 0.000000 -4.965400 11.033500
     CHANNELS 3 Yrotation Xrotation Zrotation
     End Site
     {
      OFFSET 0.000000 -1.423100 5.872300
     }
    }
   }
  }
 }
}
MOTION
Frames: 12
Frame Time: 0.008333
-142.635338 49.140156 19.094039 175.593542 -31.978275 -3.473396 -0.437155 19.781448 2.712110 -0.084237 2.434527 0.291511 -0.151556 4.005464 0.480898 -0.378039 17.034057 2.018193 4.478645 17.565838 -2.658479 9.148577 -2.830062 -6.392958 -1.776908 -1.530354 -3.675243 5.888188 -8.648348 -12.751123 -40.289225 -42.501121 94.017405 3.335863 5.394989 -11.317923 0.845417 -2.192450 2.350304 -8.207420 -2.337615 13.638972 73.180299 -64.776372 -113.021359 2.965547 11.015697 5.144143 -4.691726 -52.816797 -7.221069 -149.720307 82.697240 -136.990451 -30.380055 -2.924782 -4.044362 -0.140034 -12.302302 0.250987 -12.899252 -54.541519 19.252475 -73.852392 65.092430 -78.997104 30.608153 6.808502 16.104159 0.188827 -0.281797 0.055681
-142.631922 49.140722 19.098675 175.571192 -31.970962 -3.466576 -0.419080 19.773603 2.717222 -0.090939 2.436540 0.292776 -0.151607 4.007530 0.478990 -0.372361 17.030783 2.017565 4.466100 17.566162 -2.651564 9.126942 -2.840238 -6.375827 -1.783273 -1.531573 -3.673637 5.880791 -8.662152 -12.752835 -40.413725 -42.542216 94.096976 3.317980 5.439978 -11.341607 0.839886 -2.187203 2.344165 -8.197994 -2.358815 13.567159 73.222485 -64.796315 -113.024111 2.949501 11.026746 5.258012 -4.682624 -52.825121 -7.209866 -149.747067 82.717781 -137.014050 -30.373098 -2.916890 -4.061285 -0.126022 -12.299605 0.248479 -12.941671 -54.542252 19.272021 -73.859757 65.103977 -78.994049 30.613159 6.802454 16.078042 0.156662 -0.288887 0.060849
-142.630007 49.141322 19.102793 175.555838 -31.965401 -3.457806 -0.416406 19.771801 2.712978 -0.091056 2.436904 0.292659 -0.148852 4.007338 0.476622 -0.376103 17.033207 2.018993 4.469098 17.560592 -2.651245 9.104909 -2.854672 -6.361516 -1.780074 -1.540030 -3.675232 5.860658 -8.687373 -12.755219 -40.472635 -42.568704 94.135550 3.290062 5.479467 -11.339863 0.826467 -2.168160 2.325294 -8.169191 -2.387353 13.442507 73.236086 -64.888306 -113.000511 2.934389 11.039755 5.377323 -4.672645 -52.832140 -7.208512 -149.793043 82.731281 -137.062388 -30.332119 -2.911392 -4.084744 -0.110391 -12.295824 0.251715 -12.969261 -54.543640 19.281292 -73.850936 65.118556 -78.987322 30.615313 6.795779 16.079857 0.149768 -0.283652 0.043822
-142.628797 49.141376 19.107441 175.534899 -31.954969 -3.446144 -0.414828 19.766501 2.699017 -0.082343 2.434858 0.299806 -0.145304 4.005716 0.475280 -0.375482 17.037465 2.022381 4.465410 17.554444 -2.650697 9.096275 -2.862771 -6.357047 -1.780231 -1.547482 -3.676810 5.815668 -8.717514 -12.768226 -40.476394 -42.567234 94.165779 3.283254 5.488087 -11.345848 0.817738 -2.157968 2.311539 -8.149683 -2.393654 13.353938 73.307255 -64.952002 -113.039874 2.925020 11.070168 5.470732 -4.672386 -52.854677 -7.198513 -149.895641 82.742601 -137.176108 -30.309826 -2.890271 -4.100212 -0.107819 -12.306719 0.251299 -12.968146 -54.553012 19.287407 -73.858708 65.120249 -78.984072 30.580780 6.790764 16.074771 0.176721 -0.270350 0.031312
-142.623925 49.141731 19.112069 175.512955 -31.946239 -3.459865 -0.398604 19.758449 2.717726 -0.078105 2.437186 0.296365 -0.141316 4.003744 0.478956 -0.374777 17.038157 2.016799 4.458217 17.546609 -2.642942 9.095176 -2.868164 -6.350058 -1.779232 -1.550823 -3.667951 5.797140 -8.728014 -12.773430 -40.472698 -42.564669 94.175861 3.357632 5.400466 -11.388536 0.810185 -2.140126 2.306043 -8.128944 -2.397534 13.289201 73.343571 -65.018270 -113.063958 2.926893 11.074114 5.567259 -4.693497 -52.866000 -7.150630 -149.940148 82.761219 -137.222939 -30.300450 -2.872347 -4.114218 -0.112241 -12.312356 0.251854 -13.038364 -54.551004 19.341945 -73.888461 65.122120 -78.978580 30.568654 6.794845 15.999304 0.178856 -0.274819 0.058705
-142.628056 49.141625 19.115561 175.487261 -31.936930 -3.421175 -0.397770 19.748529 2.683668 -0.079140 2.435764 0.294721 -0.140779 4.002721 0.477613 -0.381907 17.035247 2.005037 4.448962 17.534021 -2.634529 9.103308 -2.872355 -6.340833 -1.766677 -1.551925 -3.660407 5.782928 -8.734685 -12.777533 -40.506332 -42.580315 94.200622 3.353936 5.407905 -11.381800 0.819665 -2.111389 2.301100 -8.108438 -2.402870 13.227845 73.382746 -65.084920 -113.090577 2.932319 11.080703 5.655257 -4.644911 -52.884136 -7.189095 -150.022862 82.782765 -137.309048 -30.311374 -2.865359 -4.137373 -0.114601 -12.306539 0.265570 -13.068459 -54.554195 19.328689 -73.832547 65.158901 -78.957927 30.612030 6.795812 16.016801 0.132571 -0.288562 0.038626
-142.628938 49.141909 19.118955 175.463073 -31.928637 -3.406032 -0.388128 19.738773 2.671845 -0.080574 2.437314 0.298339 -0.145431 3.999044 0.471654 -0.367249 17.037768 2.010097 4.440838 17.526955 -2.636079 9.091236 -2.882156 -6.325832 -1.780360 -1.565386 -3.677003 5.784805 -8.733240 -12.769036 -40.534326 -42.591987 94.214213 3.337008 5.423829 -11.363955 0.817847 -2.098808 2.293872 -8.091328 -2.400387 13.161575 73.466042 -65.138000 -113.148317 2.941567 11.112179 5.727746 -4.629899 -52.901213 -7.189104 -150.112403 82.799826 -137.402270 -30.320971 -2.852846 -4.156154 -0.123542 -12.309126 0.276535 -13.089912 -54.557755 19.337892 -73.830691 65.171945 -78.950895 30.606162 6.796099 15.993229 0.139637 -0.285985 0.035965
-142.623437 49.143236 19.121944 175.439826 -31.925756 -3.432126 -0.358986 19.734484 2.707175 -0.086044 2.435029 0.294676 -0.140269 3.999353 0.474485 -0.373225 17.031086 1.999302 4.452303 17.533032 -2.624601 9.079366 -2.895560 -6.315634 -1.776151 -1.565331 -3.672150 5.782607 -8.734042 -12.778442 -40.554163 -42.591768 94.227091 3.345432 5.421896 -11.350782 0.823815 -2.075977 2.296528 -8.070622 -2.401783 13.101886 73.577222 -65.141426 -113.216227 2.924339 11.174819 5.774513 -4.672327 -52.906851 -7.114002 -150.105343 82.804389 -137.401504 -30.318648 -2.838926 -4.160433 -0.122567 -12.316836 0.273898 -13.134819 -54.551884 19.403952 -73.883967 65.168154 -78.956609 30.551880 6.796846 15.914586 0.189427 -0.272909 0.061045
-142.624832 49.145104 19.122764 175.432861 -31.929364 -3.426641 -0.356814 19.737242 2.699388 -0.089185 2.433219 0.289054 -0.140124 3.997624 0.473305 -0.385959 17.024283 1.978379 4.470076 17.534393 -2.602743 9.068813 -2.906037 -6.289914 -1.758244 -1.557869 -3.650156 5.781385 -8.737585 -12.799138 -40.575281 -42.591404 94.238820 3.355335 5.426074 -11.359107 0.840740 -2.032924 2.282712 -8.052627 -2.419027 13.079496 73.573802 -65.165534 -113.204460 2.929080 11.184456 5.830621 -4.668816 -52.905593 -7.113386 -150.155750 82.823833 -137.453099 -30.382423 -2.832150 -4.146362 -0.122293 -12.318307 0.265232 -13.157331 -54.544789 19.406940 -73.884386 65.181718 -78.952480 30.546146 6.799508 15.895447 0.185057 -0.282625 0.067683
-142.630095 49.147132 19.122623 175.431225 -31.933958 -3.401444 -0.384622 19.739488 2.649096 -0.083624 2.433421 0.294055 -0.139025 3.996981 0.472237 -0.376882 17.024788 1.975137 4.461038 17.530506 -2.599057 9.078967 -2.902997 -6.273711 -1.753012 -1.558906 -3.640759 5.782636 -8.738195 -12.824480 -40.593537 -42.583096 94.257310 3.347294 5.434367 -11.379898 0.852502 -2.010808 2.265337 -8.051421 -2.424497 13.049759 73.545179 -65.175430 -113.165444 2.931188 11.197221 5.878718 -4.640100 -52.904034 -7.154149 -150.224318 82.838159 -137.525737 -30.424223 -2.832176 -4.133502 -0.119634 -12.314602 0.257321 -13.173816 -54.534195 19.375598 -73.843955 65.209503 -78.930492 30.570414 6.797455 15.904494 0.156533 -0.290340 0.055339
-142.631388 49.148981 19.123502 175.425087 -31.932496 -3.397993 -0.381538 19.733149 2.640773 -0.088151 2.436992 0.293256 -0.139050 3.996727 0.470847 -0.370555 17.022864 1.968430 4.458578 17.532125 -2.590962 9.079732 -2.900095 -6.256133 -1.756886 -1.565947 -3.645429 5.786810 -8.731509 -12.819008 -40.591011 -42.583667 94.241497 3.342926 5.438605 -11.398810 0.860908 -1.995084 2.253356 -8.058230 -2.428200 13.047683 73.526989 -65.176476 -113.140066 2.967633 11.216773 5.926524 -4.638138 -52.905442 -7.155959 -150.275311 82.851137 -137.576700 -30.433409 -2.830765 -4.137246 -0.116537 -12.312817 0.256600 -13.187913 -54.532835 19.381070 -73.837044 65.216898 -78.924941 30.573818 6.801068 15.903883 0.148593 -0.297858 0.054001
-142.629324 49.151796 19.123382 175.410448 -31.939207 -3.408663 -0.362350 19.732302 2.651348 -0.088169 2.438131 0.292622 -0.138316 3.996920 0.469614 -0.368685 17.026344 1.963020 4.458892 17.535301 -2.581319 9.081283 -2.900484 -6.244385 -1.756639 -1.569956 -3.637318 5.788007 -8.727605 -12.825960 -40.583401 -42.584322 94.227410 3.338232 5.448342 -11.428753 0.868227 -1.982096 2.243987 -8.073601 -2.421166 13.007229 73.503974 -65.211649 -113.098698 3.007114 11.248557 5.964746 -4.652477 -52.895891 -7.128808 -150.402504 82.867070 -137.706687 -30.405369 -2.825641 -4.152178 -0.107811 -12.314258 0.258858 -13.211762 -54.520558 19.412578 -73.864377 65.217435 -78.939343 30.565915 6.797425 15.880915 0.160635 -0.295702 0.055530
